<svg id="Layer_1" data-name="Layer 1" xmlns="http://www.w3.org/2000/svg" viewBox="0 0 50.87 43.18"><defs><style>.cls-1{fill:#1b1b1b;}</style></defs><path class="cls-1" d="M19.08,14.9l-2.26-.35-1-2.06a.51.51,0,0,0-.88,0l-1,2.06-2.26.35a.49.49,0,0,0-.4.34.44.44,0,0,0,.15.49l1.62,1.58-.39,2.26a.47.47,0,0,0,.2.49.54.54,0,0,0,.54.05l2-1.08,2,1.08c0,.05.14.05.24.05a.71.71,0,0,0,.3-.1.48.48,0,0,0,.19-.49l-.39-2.26,1.62-1.58a.49.49,0,0,0,.15-.49C19.42,15.05,19.27,14.9,19.08,14.9Zm-2.21,1.91a.7.7,0,0,0-.15.45L17,18.78,15.59,18a.37.37,0,0,0-.25-.05.42.42,0,0,0-.24.05l-1.38.74L14,17.26a.5.5,0,0,0-.15-.45l-1-1.08,1.52-.24c.15,0,.3-.15.39-.25l.69-1.37.69,1.37a.39.39,0,0,0,.39.25l1.53.24Z"/><path class="cls-1" d="M24.48,26V24.53A.46.46,0,0,0,24,24h-.93V14.21a6.69,6.69,0,0,0-6.69-6.68H14.46a6.68,6.68,0,0,0-6.68,6.68V24H6.84a.46.46,0,0,0-.49.49v2.11a2.2,2.2,0,0,0,2.21,2.21H15a.3.3,0,0,0-.05.2V37.4c0,.1,0,.15.05.2H6.79a.49.49,0,1,0,0,1H46.07v-.93H15.83a.3.3,0,0,0,.05-.2V29.1c0-.1,0-.15-.05-.2h6.44A2.17,2.17,0,0,0,24.43,27M8.71,14.21a5.7,5.7,0,0,1,5.7-5.7h1.92a5.7,5.7,0,0,1,5.7,5.7V24H8.71Zm-.2,13.66a1.22,1.22,0,0,1-1.23-1.23V25H23.45v1.62a1.22,1.22,0,0,1-1.23,1.23Z"/><path class="cls-1" d="M35.4,9.35a4.43,4.43,0,1,1,4.43-4.43A4.43,4.43,0,0,1,35.4,9.35Zm0-7.92a3.49,3.49,0,1,0,3.49,3.49A3.49,3.49,0,0,0,35.4,1.43Z"/><path class="cls-1" d="M37.06,38.49H34.14a3,3,0,0,1-3-3V27.93h-1.3A1.93,1.93,0,0,1,27.94,26V18a7.49,7.49,0,0,1,15,0V26A1.93,1.93,0,0,1,41,27.93H40v7.59A3,3,0,0,1,37.06,38.49ZM35.43,11.4A6.56,6.56,0,0,0,28.88,18V26a1,1,0,0,0,1,1h2.24v8.53a2,2,0,0,0,2,2h2.92a2,2,0,0,0,2-2V27H41a1,1,0,0,0,1-1V18A6.56,6.56,0,0,0,35.43,11.4Z"/></svg>