<svg id="Layer_1" data-name="Layer 1" xmlns="http://www.w3.org/2000/svg" viewBox="0 0 50.87 43.18"><defs><style>.cls-1{fill:#1b1b1b;}</style></defs><path class="cls-1" d="M19.79,14.9l-2.26-.35-1-2.06a.52.52,0,0,0-.89,0l-1,2.06-2.26.35a.49.49,0,0,0-.39.34.44.44,0,0,0,.15.49l1.62,1.58-.4,2.26a.48.48,0,0,0,.2.49.54.54,0,0,0,.54.05l2-1.08,2,1.08a.37.37,0,0,0,.25.05.72.72,0,0,0,.29-.1.47.47,0,0,0,.2-.49l-.4-2.26,1.63-1.58a.5.5,0,0,0,.14-.49A.66.66,0,0,0,19.79,14.9Zm-2.21,1.91a.7.7,0,0,0-.15.45l.25,1.52L16.3,18a.35.35,0,0,0-.24-.05.45.45,0,0,0-.25.05l-1.37.74.24-1.52a.5.5,0,0,0-.15-.45l-1-1.08,1.53-.24c.14,0,.29-.15.39-.25l.69-1.37.68,1.37a.4.4,0,0,0,.4.25l1.52.24Z"/><path class="cls-1" d="M41,14.9l-2.26-.35-1-2.06a.56.56,0,0,0-.45-.29.47.47,0,0,0-.44.29l-1,2.06-2.26.35a.46.46,0,0,0-.39.34.45.45,0,0,0,.14.49L35,17.31l-.39,2.26a.47.47,0,0,0,.2.49.67.67,0,0,0,.29.1.45.45,0,0,0,.25-.05l2-1.08,2,1.08a.56.56,0,0,0,.54-.05.46.46,0,0,0,.19-.49l-.39-2.26,1.62-1.58a.49.49,0,0,0,.15-.49C41.36,15.05,41.22,14.9,41,14.9Zm-2.21,1.91a.7.7,0,0,0-.15.45l.25,1.52L37.53,18a.36.36,0,0,0-.44,0l-1.38.74L36,17.26a.5.5,0,0,0-.15-.45l-1-1.08,1.52-.24c.15,0,.3-.15.4-.25l.68-1.37L38,15.24a.4.4,0,0,0,.4.25l1.52.24Z"/><path class="cls-1" d="M46.42,26.64V24.53a.46.46,0,0,0-.49-.49H45V14.21a6.69,6.69,0,0,0-6.68-6.68H36.4a6.69,6.69,0,0,0-6.68,6.68V24h-.94a.46.46,0,0,0-.49.49V26H25.2V24.53a.46.46,0,0,0-.49-.49h-.94V14.21a6.68,6.68,0,0,0-6.68-6.68H15.17a6.69,6.69,0,0,0-6.68,6.68V24H7.56a.46.46,0,0,0-.49.49v2.11a2.2,2.2,0,0,0,2.21,2.21h6.43a.3.3,0,0,0-.05.2V37.4c0,.1,0,.15.05.2H7.51a.49.49,0,1,0,0,1H45.88a.49.49,0,1,0,0-1h-8.1a.3.3,0,0,0,0-.2V29.05c0-.1,0-.15,0-.2h6.43A2.2,2.2,0,0,0,46.42,26.64ZM30.65,14.21a5.7,5.7,0,0,1,5.7-5.7h1.92a5.7,5.7,0,0,1,5.7,5.7V24H30.65ZM29.23,25H45.39v1.62a1.22,1.22,0,0,1-1.23,1.23H30.45a1.21,1.21,0,0,1-1.22-1.23ZM9.42,14.21a5.7,5.7,0,0,1,5.7-5.7H17a5.7,5.7,0,0,1,5.7,5.7V24H9.42ZM8,26.64V25H24.17v1.62a1.22,1.22,0,0,1-1.23,1.23H9.23A1.22,1.22,0,0,1,8,26.64Zm28.89,11H16.55a.3.3,0,0,0,.05-.2V29.1c0-.1,0-.15-.05-.2H23A2.17,2.17,0,0,0,25.15,27h3.14a2.21,2.21,0,0,0,2.16,1.91h6.44a.3.3,0,0,0,0,.2v8.35A.3.3,0,0,0,36.89,37.65Z"/></svg>