<svg id="Layer_1" data-name="Layer 1" xmlns="http://www.w3.org/2000/svg" viewBox="0 0 50.87 43.18"><defs><style>.cls-1{fill:#1b1b1b;}</style></defs><path class="cls-1" d="M19.74,14.9l-2.26-.35-1-2.06a.52.52,0,0,0-.89,0l-1,2.06-2.26.35a.48.48,0,0,0-.39.34.45.45,0,0,0,.14.49l1.63,1.58-.4,2.26a.47.47,0,0,0,.2.49.54.54,0,0,0,.54.05l2-1.08,2,1.08a.36.36,0,0,0,.24.05.71.71,0,0,0,.3-.1.48.48,0,0,0,.2-.49l-.4-2.26,1.62-1.58a.49.49,0,0,0,.15-.49C20.08,15.05,19.94,14.9,19.74,14.9Zm-2.21,1.91a.7.7,0,0,0-.15.45l.25,1.52L16.25,18A.36.36,0,0,0,16,18a.45.45,0,0,0-.25.05l-1.38.74.25-1.52a.5.5,0,0,0-.15-.45l-1-1.08L15,15.49c.15,0,.3-.15.4-.25l.68-1.37.69,1.37a.4.4,0,0,0,.4.25l1.52.24Z"/><path class="cls-1" d="M41,14.9l-2.26-.35-1-2.06a.53.53,0,0,0-.44-.29.47.47,0,0,0-.44.29l-1,2.06-2.26.35a.49.49,0,0,0-.4.34.44.44,0,0,0,.15.49L35,17.31l-.39,2.26a.47.47,0,0,0,.2.49.63.63,0,0,0,.29.1.45.45,0,0,0,.25-.05l2-1.08,2,1.08a.56.56,0,0,0,.54-.05.48.48,0,0,0,.19-.49l-.39-2.26,1.62-1.58a.49.49,0,0,0,.15-.49C41.31,15.05,41.16,14.9,41,14.9Zm-2.21,1.91a.7.7,0,0,0-.15.45l.24,1.52L37.48,18A.36.36,0,0,0,37,18l-1.38.74.25-1.52a.5.5,0,0,0-.15-.45l-1-1.08,1.52-.24c.15,0,.29-.15.39-.25l.69-1.37L38,15.24a.39.39,0,0,0,.39.25l1.53.24Z"/><path class="cls-1" d="M45.88,24H45V14.21a6.68,6.68,0,0,0-3.27-5.73L41,9.21a5.7,5.7,0,0,1,3,5V24H30.6V19.56l-.93.94V24h-.94a.46.46,0,0,0-.49.49V26H25.15V25l-1,1v.59a1.22,1.22,0,0,1-1.23,1.23h-.59l-1,1h1.67A2.18,2.18,0,0,0,25.1,27h3.14A2.21,2.21,0,0,0,30.4,28.9h6.44a.3.3,0,0,0-.05.2v8.35a.3.3,0,0,0,.05.2H16.5a.3.3,0,0,0,.05-.2V33.61l-.94.94V37.4c0,.1,0,.15.05.2h-3.1l-1,1H45.83a.49.49,0,1,0,0-1H37.72a.3.3,0,0,0,.05-.2V29.05c0-.1,0-.15-.05-.2h6.44a2.2,2.2,0,0,0,2.21-2.21V24.53A.46.46,0,0,0,45.88,24Zm-.54,2.6a1.22,1.22,0,0,1-1.23,1.23H30.4a1.22,1.22,0,0,1-1.23-1.23V25H45.34Z"/><path class="cls-1" d="M31,12.07a5.76,5.76,0,0,1,3.14-3.14L35.5,7.59a6.68,6.68,0,0,0-5.77,5.78Z"/><path class="cls-1" d="M9.23,28.85h5l1-1h-6A1.22,1.22,0,0,1,8,26.64V25H18.07l1-1H9.37V14.21a5.7,5.7,0,0,1,5.7-5.7H17a5.7,5.7,0,0,1,5.7,5.7V20.4l1-1V14.21A6.69,6.69,0,0,0,17,7.53H15.12a6.69,6.69,0,0,0-6.68,6.68V24H7.51a.46.46,0,0,0-.5.49v2.11A2.21,2.21,0,0,0,9.23,28.85Z"/><rect class="cls-1" x="-3.9" y="21.18" width="57.19" height="1.5" transform="translate(-8.27 23.89) rotate(-45)"/></svg>