<?xml version="1.0" encoding="utf-8"?>
<!-- Generator: Adobe Illustrator 19.1.0, SVG Export Plug-In . SVG Version: 6.00 Build 0)  -->
<svg version="1.1" id="Capa_1" xmlns="http://www.w3.org/2000/svg" xmlns:xlink="http://www.w3.org/1999/xlink" x="0px" y="0px"
	 viewBox="-184 185.9 30.1 30.1" style="enable-background:new -184 185.9 30.1 30.1;" xml:space="preserve">
<style type="text/css">
	.st0{fill:#FFFFFF;}
</style>
<g>
	<path class="st0" d="M-164,200.4l-6.2-4.5c-0.2-0.2-0.5-0.2-0.8-0.1c-0.3,0.1-0.4,0.4-0.4,0.7v9.1c0,0.3,0.2,0.5,0.4,0.7
		c0.1,0.1,0.2,0.1,0.3,0.1c0.2,0,0.3,0,0.4-0.1l6.2-4.5c0.2-0.1,0.3-0.4,0.3-0.6C-163.7,200.8-163.8,200.5-164,200.4z"/>
	<path class="st0" d="M-169,186c-8.3,0-15,6.7-15,15c0,8.3,6.7,15,15,15c8.3,0,15-6.7,15-15C-153.9,192.7-160.7,186-169,186z
		 M-169,213.5c-6.9,0-12.5-5.6-12.5-12.5c0-6.9,5.6-12.5,12.5-12.5c6.9,0,12.5,5.6,12.5,12.5C-156.5,207.9-162.1,213.5-169,213.5z"
		/>
</g>
</svg>
